<?xml version="1.0" encoding="UTF-8" standalone="no"?>
<!-- Created with Inkscape (http://www.inkscape.org/) -->

<svg
   xmlns:dc="http://purl.org/dc/elements/1.1/"
   xmlns:cc="http://creativecommons.org/ns#"
   xmlns:rdf="http://www.w3.org/1999/02/22-rdf-syntax-ns#"
   xmlns:svg="http://www.w3.org/2000/svg"
   xmlns="http://www.w3.org/2000/svg"
   xmlns:sodipodi="http://sodipodi.sourceforge.net/DTD/sodipodi-0.dtd"
   xmlns:inkscape="http://www.inkscape.org/namespaces/inkscape"
   width="210mm"
   height="297mm"
   viewBox="0 0 210 297"
   version="1.1"
   id="svg4179"
   inkscape:version="0.92.3 (2405546, 2018-03-11)"
   sodipodi:docname="tile-grid.svg">
  <defs
     id="defs4173" />
  <sodipodi:namedview
     id="base"
     pagecolor="#ffffff"
     bordercolor="#666666"
     borderopacity="1.0"
     inkscape:pageopacity="0.0"
     inkscape:pageshadow="2"
     inkscape:zoom="0.76015625"
     inkscape:cx="451.89836"
     inkscape:cy="597.53361"
     inkscape:document-units="mm"
     inkscape:current-layer="layer1"
     showgrid="false"
     inkscape:window-width="1366"
     inkscape:window-height="705"
     inkscape:window-x="-8"
     inkscape:window-y="-8"
     inkscape:window-maximized="1" />
  <metadata
     id="metadata4176">
    <rdf:RDF>
      <cc:Work
         rdf:about="">
        <dc:format>image/svg+xml</dc:format>
        <dc:type
           rdf:resource="http://purl.org/dc/dcmitype/StillImage" />
        <dc:title></dc:title>
      </cc:Work>
    </rdf:RDF>
  </metadata>
  <g
     inkscape:label="Layer 1"
     inkscape:groupmode="layer"
     id="layer1">
    <g
       id="g3900"
       transform="matrix(0.35277777,0,0,-0.35277777,65.966282,124.87771)">
      <path
         d="M 0,0 -56.693,-32.732 -113.386,0 V 65.463 L -56.693,98.195 0,65.463 Z"
         style="fill:none;stroke:#231f20;stroke-width:0.42500001;stroke-linecap:butt;stroke-linejoin:miter;stroke-miterlimit:10;stroke-dasharray:none;stroke-opacity:1"
         id="path3902"
         inkscape:connector-curvature="0" />
    </g>
    <g
       transform="matrix(0.35277777,0,0,-0.35277777,105.96634,124.87771)"
       id="g4209">
      <path
         inkscape:connector-curvature="0"
         id="path4207"
         style="fill:none;stroke:#231f20;stroke-width:0.42500001;stroke-linecap:butt;stroke-linejoin:miter;stroke-miterlimit:10;stroke-dasharray:none;stroke-opacity:1"
         d="M 0,0 -56.693,-32.732 -113.386,0 V 65.463 L -56.693,98.195 0,65.463 Z" />
    </g>
    <g
       id="g4213"
       transform="matrix(0.35277777,0,0,-0.35277777,145.9664,124.87771)">
      <path
         d="M 0,0 -56.693,-32.732 -113.386,0 V 65.463 L -56.693,98.195 0,65.463 Z"
         style="fill:none;stroke:#231f20;stroke-width:0.42500001;stroke-linecap:butt;stroke-linejoin:miter;stroke-miterlimit:10;stroke-dasharray:none;stroke-opacity:1"
         id="path4211"
         inkscape:connector-curvature="0" />
    </g>
    <g
       transform="matrix(0.35277777,0,0,-0.35277777,185.96646,124.87771)"
       id="g4217">
      <path
         inkscape:connector-curvature="0"
         id="path4215"
         style="fill:none;stroke:#231f20;stroke-width:0.42500001;stroke-linecap:butt;stroke-linejoin:miter;stroke-miterlimit:10;stroke-dasharray:none;stroke-opacity:1"
         d="M 0,0 -56.693,-32.732 -113.386,0 V 65.463 L -56.693,98.195 0,65.463 Z" />
    </g>
    <g
       transform="matrix(0.35277777,0,0,-0.35277777,85.96631,159.51872)"
       id="g4221">
      <path
         inkscape:connector-curvature="0"
         id="path4219"
         style="fill:none;stroke:#231f20;stroke-width:0.42500001;stroke-linecap:butt;stroke-linejoin:miter;stroke-miterlimit:10;stroke-dasharray:none;stroke-opacity:1"
         d="M 0,0 -56.693,-32.732 -113.386,0 V 65.463 L -56.693,98.195 0,65.463 Z" />
    </g>
    <g
       id="g4225"
       transform="matrix(0.35277777,0,0,-0.35277777,125.96637,159.51872)">
      <path
         d="M 0,0 -56.693,-32.732 -113.386,0 V 65.463 L -56.693,98.195 0,65.463 Z"
         style="fill:none;stroke:#231f20;stroke-width:0.42500001;stroke-linecap:butt;stroke-linejoin:miter;stroke-miterlimit:10;stroke-dasharray:none;stroke-opacity:1"
         id="path4223"
         inkscape:connector-curvature="0" />
    </g>
    <g
       transform="matrix(0.35277777,0,0,-0.35277777,165.96643,159.51872)"
       id="g4229">
      <path
         inkscape:connector-curvature="0"
         id="path4227"
         style="fill:none;stroke:#231f20;stroke-width:0.42500001;stroke-linecap:butt;stroke-linejoin:miter;stroke-miterlimit:10;stroke-dasharray:none;stroke-opacity:1"
         d="M 0,0 -56.693,-32.732 -113.386,0 V 65.463 L -56.693,98.195 0,65.463 Z" />
    </g>
    <g
       id="g4233"
       transform="matrix(0.35277777,0,0,-0.35277777,205.96649,159.51872)">
      <path
         d="M 0,0 -56.693,-32.732 -113.386,0 V 65.463 L -56.693,98.195 0,65.463 Z"
         style="fill:none;stroke:#231f20;stroke-width:0.42500001;stroke-linecap:butt;stroke-linejoin:miter;stroke-miterlimit:10;stroke-dasharray:none;stroke-opacity:1"
         id="path4231"
         inkscape:connector-curvature="0" />
    </g>
    <g
       id="g4237"
       transform="matrix(0.35277777,0,0,-0.35277777,65.96628,194.15973)">
      <path
         d="M 0,0 -56.693,-32.732 -113.386,0 V 65.463 L -56.693,98.195 0,65.463 Z"
         style="fill:none;stroke:#231f20;stroke-width:0.42500001;stroke-linecap:butt;stroke-linejoin:miter;stroke-miterlimit:10;stroke-dasharray:none;stroke-opacity:1"
         id="path4235"
         inkscape:connector-curvature="0" />
    </g>
    <g
       transform="matrix(0.35277777,0,0,-0.35277777,105.96634,194.15973)"
       id="g4241">
      <path
         inkscape:connector-curvature="0"
         id="path4239"
         style="fill:none;stroke:#231f20;stroke-width:0.42500001;stroke-linecap:butt;stroke-linejoin:miter;stroke-miterlimit:10;stroke-dasharray:none;stroke-opacity:1"
         d="M 0,0 -56.693,-32.732 -113.386,0 V 65.463 L -56.693,98.195 0,65.463 Z" />
    </g>
    <g
       id="g4245"
       transform="matrix(0.35277777,0,0,-0.35277777,145.9664,194.15973)">
      <path
         d="M 0,0 -56.693,-32.732 -113.386,0 V 65.463 L -56.693,98.195 0,65.463 Z"
         style="fill:none;stroke:#231f20;stroke-width:0.42500001;stroke-linecap:butt;stroke-linejoin:miter;stroke-miterlimit:10;stroke-dasharray:none;stroke-opacity:1"
         id="path4243"
         inkscape:connector-curvature="0" />
    </g>
    <g
       transform="matrix(0.35277777,0,0,-0.35277777,185.96646,194.15973)"
       id="g4249">
      <path
         inkscape:connector-curvature="0"
         id="path4247"
         style="fill:none;stroke:#231f20;stroke-width:0.42500001;stroke-linecap:butt;stroke-linejoin:miter;stroke-miterlimit:10;stroke-dasharray:none;stroke-opacity:1"
         d="M 0,0 -56.693,-32.732 -113.386,0 V 65.463 L -56.693,98.195 0,65.463 Z" />
    </g>
    <g
       id="g4253"
       transform="matrix(0.35277777,0,0,-0.35277777,45.96625,159.51872)">
      <path
         d="M 0,0 -56.693,-32.732 -113.386,0 V 65.463 L -56.693,98.195 0,65.463 Z"
         style="fill:none;stroke:#231f20;stroke-width:0.42500001;stroke-linecap:butt;stroke-linejoin:miter;stroke-miterlimit:10;stroke-dasharray:none;stroke-opacity:1"
         id="path4251"
         inkscape:connector-curvature="0" />
    </g>
  </g>
</svg>
